<?xml version="1.0" standalone="no"?>
<!DOCTYPE svg PUBLIC "-//W3C//DTD SVG 20010904//EN"
 "http://www.w3.org/TR/2001/REC-SVG-20010904/DTD/svg10.dtd">
<svg version="1.0" xmlns="http://www.w3.org/2000/svg"
 width="189.000000pt" height="166.000000pt" viewBox="0 0 189.000000 166.000000"
 preserveAspectRatio="xMidYMid meet">

<g transform="translate(0.000000,166.000000) scale(0.100000,-0.100000)"
fill="#000000" stroke="none">
<path d="M0 830 l0 -830 945 0 945 0 0 830 0 830 -945 0 -945 0 0 -830z m685
156 c107 -318 195 -580 195 -582 0 -2 -16 -4 -35 -4 l-34 0 -162 493 c-88 270
-163 499 -166 507 -7 21 -11 10 -185 -525 l-154 -470 -32 -3 c-18 -2 -32 1
-32 6 0 6 344 1042 386 1161 3 9 8 11 14 5 5 -5 97 -270 205 -588z m459 550
c33 -56 33 -74 1 -82 l-25 -6 0 -524 0 -524 -25 0 -25 0 0 590 0 590 24 0 c18
0 31 -11 50 -44z m606 -546 l0 -590 -25 0 -25 0 0 528 c-1 416 -3 524 -13 511
-7 -9 -70 -125 -142 -257 -71 -133 -132 -242 -136 -242 -3 0 -35 53 -69 118
-35 64 -87 160 -116 212 -38 69 -50 98 -42 107 26 32 44 11 133 -157 86 -164
91 -170 105 -149 8 12 64 112 123 223 156 290 154 286 182 286 l25 0 0 -590z
m-1258 -395 c55 -207 54 -195 24 -195 -13 0 -27 4 -30 9 -8 13 -86 302 -86
319 0 9 10 12 27 10 27 -3 29 -9 65 -143z"/>
</g>
</svg>
