<?xml version="1.0" standalone="no"?>
<!DOCTYPE svg PUBLIC "-//W3C//DTD SVG 20010904//EN"
 "http://www.w3.org/TR/2001/REC-SVG-20010904/DTD/svg10.dtd">
<svg version="1.0" xmlns="http://www.w3.org/2000/svg"
 width="3264.000000pt" height="2448.000000pt" viewBox="0 0 3264.000000 2448.000000"
 preserveAspectRatio="xMidYMid meet">

<g transform="translate(0.000000,2448.000000) scale(0.100000,-0.100000)"
fill="#000000" stroke="none">
<path d="M5340 15213 c-48 -40 -70 -95 -70 -180 0 -39 5 -75 10 -78 6 -3 10
-11 10 -16 0 -6 -4 -7 -10 -4 -5 3 -10 -1 -10 -10 0 -8 7 -18 15 -21 13 -5 13
-9 3 -22 -8 -10 -8 -13 -2 -9 7 4 14 0 18 -8 3 -8 1 -17 -4 -20 -4 -3 -10 1
-13 7 -3 7 -4 3 -4 -10 1 -26 34 -63 34 -38 0 8 -4 14 -8 13 -4 -1 -7 3 -7 8
0 6 4 9 9 8 5 -2 8 0 7 5 -2 4 1 7 7 7 5 0 10 -15 9 -32 0 -29 9 -37 12 -12 3
22 5 23 15 9 9 -13 10 -13 8 0 -4 37 1 65 10 52 4 -8 7 -27 5 -42 -2 -16 1
-32 6 -35 6 -3 7 2 4 12 -5 16 -4 16 10 -1 16 -20 12 -41 -6 -30 -7 5 -8 2 -4
-5 6 -9 13 -8 27 5 21 19 26 6 7 -16 -11 -12 -10 -12 4 -1 13 9 16 22 13 42
-6 34 2 38 14 7 6 -16 5 -30 -5 -45 -9 -14 -10 -24 -4 -28 6 -4 9 -3 8 2 -1 4
4 19 11 32 16 29 31 17 36 -30 2 -19 4 -36 5 -39 1 -3 2 -9 1 -13 -1 -5 3 -6
9 -2 6 3 7 12 3 18 -4 7 -8 25 -9 41 -2 16 -7 33 -13 39 -6 6 -11 15 -11 20 0
14 21 -4 30 -27 7 -17 9 -18 9 -3 1 10 6 15 11 12 6 -4 7 -11 4 -17 -19 -30
-11 -57 29 -94 l42 -39 -38 41 c-20 22 -35 43 -31 46 3 3 21 -10 40 -30 19
-21 33 -32 32 -27 -2 6 2 11 7 13 6 1 10 -2 10 -7 0 -5 4 -13 8 -18 5 -4 7 -3
5 2 -1 6 2 11 7 12 6 2 10 -10 9 -27 0 -16 3 -27 7 -24 4 2 6 12 4 22 -1 9 3
23 9 31 8 11 8 13 -1 8 -6 -4 -14 -3 -18 3 -3 5 0 10 7 10 8 0 9 3 3 8 -5 4
-11 13 -13 20 -4 21 -33 62 -44 62 -5 0 -7 4 -4 9 5 8 -58 139 -73 151 -3 3
-7 12 -9 20 -2 8 -11 23 -19 33 -9 9 -13 17 -8 17 4 0 3 6 -3 13 -5 6 -29 48
-53 92 -23 44 -50 93 -60 108 l-16 28 -33 -28z m-35 -133 c10 -11 16 -20 13
-20 -3 0 -13 9 -23 20 -10 11 -16 20 -13 20 3 0 13 -9 23 -20z m-10 -38 c-1
-9 2 -22 7 -29 5 -7 5 -14 -2 -18 -5 -3 -10 -12 -10 -18 1 -7 10 -1 21 12 l20
24 -5 -30 c-4 -22 -2 -30 9 -30 11 0 14 7 10 21 -3 12 3 6 13 -13 14 -25 20
-30 25 -18 3 9 2 18 -4 21 -5 2 -4 3 3 2 7 -2 11 -11 10 -21 -3 -16 -2 -17 12
-6 13 11 14 17 4 28 -13 16 -22 50 -10 38 4 -4 7 -12 7 -18 1 -7 6 -11 12 -10
6 1 10 -5 8 -15 -4 -24 6 -37 17 -21 7 11 9 11 7 -1 -2 -24 12 -60 22 -54 5 3
5 12 0 22 -4 9 -7 25 -5 35 4 30 12 30 12 0 0 -15 3 -37 5 -48 3 -11 6 -22 6
-25 1 -3 5 2 10 10 6 8 7 19 3 25 -12 18 -10 32 4 32 9 0 11 -4 4 -12 -7 -8
-3 -18 11 -31 12 -10 23 -17 24 -14 2 3 7 1 12 -4 5 -5 3 -6 -4 -2 -8 4 -13 1
-13 -9 0 -9 4 -14 9 -11 4 3 17 -4 27 -16 11 -12 13 -18 7 -14 -8 4 -13 1 -13
-8 0 -9 6 -13 14 -10 17 7 23 -11 21 -61 -1 -26 -6 -39 -14 -37 -7 1 -10 -2
-6 -8 3 -6 10 -8 15 -5 5 3 11 1 14 -4 4 -5 2 -12 -3 -15 -14 -9 -51 43 -44
61 6 14 8 14 14 -3 4 -10 8 -14 8 -7 1 6 4 20 7 30 5 15 4 16 -5 3 -9 -12 -11
-9 -7 13 3 16 1 25 -5 22 -5 -4 -6 -11 -3 -17 5 -7 2 -8 -6 -3 -9 5 -11 4 -6
-3 7 -12 -12 -57 -21 -49 -2 3 0 14 6 25 8 15 7 23 -3 31 -7 6 -16 8 -19 5 -3
-4 -16 9 -27 27 -12 19 -19 25 -16 14 3 -11 1 -27 -4 -35 -7 -11 -10 -11 -10
-2 0 7 -10 28 -23 47 -21 31 -24 32 -34 16 -7 -11 -8 -23 -2 -32 7 -12 9 -12
10 1 1 8 1 19 0 23 -1 5 3 6 8 3 8 -5 8 -28 2 -65 -1 -2 -10 8 -22 23 -11 14
-18 29 -16 34 3 4 -1 18 -8 32 l-14 25 -7 -33 c-4 -18 -11 -35 -17 -39 -6 -4
-8 0 -4 10 6 16 -15 41 -26 30 -4 -3 -8 -1 -8 5 -1 7 -3 17 -4 22 -1 6 -3 15
-4 21 0 5 -7 7 -13 3 -9 -6 -9 -3 0 9 8 9 10 22 6 29 -10 16 -13 118 -3 112 4
-2 6 -12 4 -22z m56 11 c13 -16 12 -17 -3 -4 -17 13 -22 21 -14 21 2 0 10 -8
17 -17z m-24 -18 c0 -8 -4 -12 -9 -9 -5 3 -6 10 -3 15 9 13 12 11 12 -6z m90
-10 c0 -8 -4 -12 -9 -9 -5 3 -6 10 -3 15 9 13 12 11 12 -6z m-47 0 c0 -2 -6
-8 -13 -14 -10 -8 -14 -7 -14 2 0 8 6 14 14 14 7 0 13 -1 13 -2z m77 -10 c0
-8 -4 -12 -9 -9 -5 3 -6 10 -3 15 9 13 12 11 12 -6z m-70 -20 c0 -8 -4 -12 -9
-9 -5 3 -6 10 -3 15 9 13 12 11 12 -6z m108 -5 c10 -11 16 -20 13 -20 -3 0
-13 9 -23 20 -10 11 -16 20 -13 20 3 0 13 -9 23 -20z m-28 -15 c0 -8 -4 -12
-9 -9 -5 3 -6 10 -3 15 9 13 12 11 12 -6z m198 -275 c2 -11 0 -22 -4 -25 -11
-6 -38 27 -36 45 1 8 3 22 3 30 2 18 31 -21 37 -50z"/>
<path d="M5307 14973 c-3 -5 -3 -21 0 -38 2 -16 5 -35 5 -42 1 -7 5 -10 9 -8
4 3 10 -3 14 -12 5 -16 8 -15 25 7 l18 24 13 -27 c9 -20 15 -24 21 -15 4 7 8
18 8 23 0 6 -4 4 -9 -4 -7 -10 -9 -7 -8 12 2 30 17 38 17 10 0 -16 2 -16 11
-3 9 12 10 12 5 -4 -4 -10 3 -33 15 -52 21 -35 32 -45 23 -20 -11 29 16 25 31
-4 9 -17 20 -28 25 -25 5 3 11 1 15 -5 11 -17 21 -3 19 27 -1 15 -7 27 -13 25
-6 -1 -16 10 -22 25 l-11 28 -12 -24 c-11 -20 -14 -21 -19 -7 -4 10 -11 14
-17 11 -5 -3 -14 4 -19 17 -11 30 -37 52 -45 39 -8 -13 -36 -7 -47 10 -7 12
-9 12 -9 -1 0 -13 -1 -13 -10 0 -9 13 -10 13 -10 0 -1 -12 -3 -11 -11 3 -5 9
-7 22 -4 27 3 6 4 10 1 10 -3 0 -7 -3 -9 -7z m59 -55 c3 -4 0 -16 -8 -27 -14
-20 -15 -20 -31 8 -16 27 -16 28 8 27 13 -1 27 -5 31 -8z m28 -14 c3 -8 2 -12
-4 -9 -6 3 -10 10 -10 16 0 14 7 11 14 -7z m79 -42 c4 9 6 9 6 1 2 -23 -18
-23 -29 -1 -10 21 -10 22 3 5 11 -14 16 -15 20 -5z m73 -47 c14 -27 14 -28 -1
-11 -11 15 -15 16 -15 5 -1 -8 -7 -3 -14 10 -16 28 -10 63 6 39 5 -7 16 -26
24 -43z"/>
<path d="M5333 14909 c3 -15 21 -13 25 3 3 10 2 10 -6 -1 -7 -9 -11 -10 -15
-2 -4 7 -5 8 -4 0z"/>
<path d="M5516 14837 c3 -10 9 -15 12 -12 3 3 0 11 -7 18 -10 9 -11 8 -5 -6z"/>
<path d="M5620 14732 c0 -6 5 -14 10 -17 6 -4 7 -11 4 -17 -4 -7 -2 -8 5 -4 9
6 9 12 -1 24 -7 10 -14 19 -15 21 -2 2 -3 -1 -3 -7z"/>
<path d="M8906 14762 c-132 -240 -265 -483 -295 -539 -31 -57 -60 -102 -64
-100 -8 2 -86 126 -219 347 -22 36 -37 54 -33 40 5 -18 4 -22 -4 -15 -6 6 -12
23 -13 37 -1 15 -7 26 -13 25 -5 -1 -9 8 -9 20 1 13 -2 20 -6 18 -11 -7 -7
-30 9 -48 7 -9 10 -29 8 -46 -3 -17 -2 -33 2 -36 4 -2 7 -14 5 -27 -1 -13 -3
-27 -3 -31 -1 -5 -5 -6 -11 -2 -5 3 -7 13 -4 23 5 14 4 14 -4 2 -6 -8 -7 -19
-2 -25 4 -5 8 -12 8 -15 1 -3 5 -18 11 -33 14 -37 14 -42 -4 -27 -8 7 -13 16
-10 20 3 5 1 11 -4 14 -14 9 -8 -16 12 -44 18 -25 23 -45 10 -37 -5 3 -7 -15
-6 -40 2 -40 0 -43 -15 -31 -12 8 -11 5 3 -11 21 -25 25 -46 13 -73 -5 -9 -4
-20 2 -23 5 -3 10 -11 10 -17 0 -6 -7 -5 -17 3 -16 13 -17 12 -4 -3 15 -20 7
-53 -10 -42 -8 4 -9 3 -5 -5 4 -6 12 -9 17 -6 5 4 10 0 10 -7 5 -51 3 -75 -5
-85 -4 -7 -5 -13 -1 -13 5 0 1 -8 -8 -18 -14 -15 -15 -19 -2 -19 8 0 12 4 9 8
-2 4 0 10 5 13 5 4 12 2 15 -3 9 -13 -23 -43 -37 -34 -8 5 -8 2 0 -8 10 -12
10 -18 0 -28 -9 -10 -9 -12 3 -9 9 2 15 -6 16 -19 1 -13 2 -24 3 -25 1 -2 4
-18 5 -36 3 -29 2 -31 -13 -20 -14 11 -14 11 -3 -3 15 -20 9 -65 -8 -61 -6 1
-9 -2 -5 -8 3 -6 10 -8 15 -5 4 3 11 -2 14 -11 9 -25 7 -27 -11 -13 -15 13
-15 11 1 -13 11 -17 13 -28 7 -33 -11 -6 -12 -5 -15 14 0 5 -4 12 -8 16 -9 9
-5 -16 5 -32 5 -7 5 -13 1 -13 -4 0 0 -8 9 -18 11 -12 13 -22 7 -32 -9 -14
-11 -13 -14 9 0 5 -4 12 -8 16 -11 11 -3 -22 9 -36 6 -9 10 -54 9 -112 0 -55
2 -101 6 -103 4 -3 4 -15 0 -27 -9 -27 -8 -91 2 -134 8 -37 -1 -76 -15 -67 -6
3 -6 11 -1 17 7 11 8 29 2 42 -1 3 -3 9 -4 14 0 5 -4 12 -8 16 -5 6 -3 -25 2
-32 7 -8 5 -30 -2 -40 -5 -6 -4 -14 2 -18 8 -5 7 -11 -1 -21 -10 -12 -10 -14
1 -12 7 2 15 -3 18 -11 3 -9 0 -11 -7 -6 -10 5 -10 2 0 -13 15 -23 5 -57 -13
-46 -10 6 -10 5 -1 -7 10 -12 10 -18 0 -28 -9 -10 -7 -10 10 0 14 8 18 16 12
20 -8 5 -8 9 0 13 6 4 14 0 18 -9 3 -10 0 -21 -8 -26 -8 -4 -14 -23 -14 -41 0
-18 -5 -32 -11 -31 -6 1 -11 -5 -11 -13 0 -11 4 -11 19 3 10 9 18 11 18 5 0
-6 -5 -14 -10 -17 -7 -5 -8 -11 -1 -19 6 -7 6 -17 1 -26 -9 -14 -11 -13 -14 9
0 5 -4 12 -8 16 -5 6 -4 -19 2 -35 1 -3 2 -9 1 -13 -1 -5 4 -5 10 -1 7 4 10 2
7 -7 -3 -8 -11 -13 -18 -11 -10 2 -11 0 -2 -11 8 -9 8 -17 1 -24 -8 -8 -7 -13
0 -18 6 -3 10 -1 9 6 -2 6 3 14 9 16 10 3 11 -1 4 -19 -5 -13 -14 -22 -21 -20
-6 1 -9 -2 -5 -8 3 -6 10 -8 15 -5 4 3 11 -2 14 -11 9 -25 7 -27 -11 -13 -10
8 -14 9 -10 2 4 -6 2 -15 -3 -18 -8 -5 -7 -12 3 -23 8 -10 18 -28 22 -42 7
-22 6 -23 -8 -11 -9 7 -15 17 -12 21 3 5 1 11 -4 14 -14 9 -7 -20 10 -41 8
-10 14 -25 13 -33 -1 -8 -2 -23 -3 -33 -1 -12 -5 -16 -13 -11 -10 6 -10 4 0
-8 7 -9 11 -27 8 -41 -3 -19 0 -24 12 -23 15 3 17 22 17 179 0 96 2 174 5 172
3 -2 5 12 5 30 0 18 -3 31 -6 29 -3 -2 -4 23 -2 54 8 140 8 190 -2 184 -5 -3
-3 3 5 13 8 10 10 16 5 13 -7 -4 -10 38 -9 128 1 98 -1 132 -10 127 -7 -4 -7
-2 1 8 8 10 12 49 12 108 0 51 2 96 5 99 3 3 6 -14 6 -37 0 -23 4 -40 8 -37 5
3 8 15 6 28 -1 13 -3 31 -3 42 -1 11 -6 16 -14 13 -10 -4 -13 21 -11 122 1 87
5 125 13 124 13 -4 14 7 1 27 -8 13 -10 12 -10 -3 0 -11 -5 -15 -11 -11 -7 4
-7 10 -1 16 6 6 8 16 5 23 -2 8 1 23 7 35 9 16 8 25 -2 38 -7 9 -8 13 -2 9 6
-3 11 0 11 8 0 8 -3 12 -6 10 -4 -2 -6 16 -6 40 0 24 3 41 6 39 3 -2 3 13 0
34 -4 20 -6 99 -5 175 0 77 -3 132 -7 125 -12 -19 -11 4 1 38 8 19 8 30 0 38
-13 13 -13 29 0 21 6 -3 10 -1 10 4 0 6 -5 11 -11 11 -5 0 -7 5 -3 11 10 16
25 -12 18 -33 -8 -26 5 -22 16 5 7 18 9 19 11 5 1 -10 2 -24 3 -30 1 -7 8 -12
16 -10 8 2 12 0 8 -4 -4 -4 -4 -12 2 -19 6 -7 5 -20 -3 -36 -17 -33 -14 -74 4
-49 9 13 10 13 6 -1 -3 -9 -1 -21 4 -26 6 -6 4 -10 -5 -10 -8 0 -14 3 -13 6 1
3 -2 6 -8 6 -5 0 -11 -7 -12 -16 -2 -12 4 -15 23 -13 l26 2 -20 -21 c-15 -17
-18 -27 -11 -45 6 -15 13 -21 21 -16 10 6 10 4 0 -8 -7 -9 -14 -24 -16 -34 -2
-11 -6 -26 -8 -34 -1 -8 2 -14 8 -13 6 1 10 -15 10 -37 0 -21 -4 -36 -8 -34
-5 3 -6 9 -3 14 3 4 -3 14 -12 21 -15 12 -16 12 -10 -4 4 -10 2 -27 -3 -37 -6
-12 -6 -21 -1 -25 6 -3 10 -13 11 -23 1 -24 8 -96 9 -102 1 -3 5 1 10 9 6 9 9
5 9 -13 0 -24 -2 -25 -13 -9 -11 15 -13 15 -24 -5 -16 -30 -13 -40 6 -17 12
15 14 16 10 3 -7 -19 15 -42 29 -30 5 4 -1 -5 -14 -19 -14 -16 -19 -29 -14
-33 6 -3 13 0 16 6 3 7 3 -2 0 -21 -2 -18 0 -39 6 -45 7 -9 6 -13 -4 -13 -8 0
-13 11 -12 29 0 15 -4 29 -9 30 -5 2 -10 -22 -11 -53 0 -31 -4 -68 -8 -82 -4
-19 -3 -26 6 -25 7 2 13 -3 14 -9 3 -27 5 -28 14 -13 6 9 10 10 10 3 0 -6 -5
-15 -10 -18 -14 -9 -1 -27 13 -18 7 3 3 -4 -7 -16 -11 -12 -21 -27 -22 -34 -1
-7 -7 -23 -13 -37 -11 -25 -11 -25 -6 3 4 19 2 26 -5 22 -5 -3 -10 -32 -10
-63 0 -36 4 -52 9 -43 5 7 7 23 5 35 -3 15 -2 16 3 6 5 -8 18 -15 30 -14 12 1
20 -2 17 -7 -2 -4 -12 -5 -21 -2 -12 5 -14 3 -7 -8 5 -8 9 -17 10 -21 1 -5 2
-9 4 -10 1 -2 3 -11 5 -21 3 -14 0 -16 -10 -7 -8 6 -12 20 -10 30 4 23 -11 36
-18 16 -3 -7 1 -25 8 -40 8 -15 10 -24 5 -21 -6 4 -10 2 -10 -3 0 -16 13 -22
25 -12 8 7 11 0 11 -24 0 -19 -4 -32 -9 -29 -4 2 -5 13 -2 22 3 11 0 18 -10
18 -15 0 -16 -22 -1 -46 6 -10 5 -12 -2 -7 -7 4 -12 3 -12 -2 0 -15 13 -22 24
-12 9 6 12 -5 11 -40 0 -26 -4 -48 -10 -47 -8 2 -10 -11 -6 -44 0 -5 5 -8 9
-5 4 2 8 -6 8 -19 0 -19 -3 -22 -13 -13 -7 5 -11 14 -8 18 3 4 -4 19 -15 31
-11 13 -19 19 -20 12 0 -6 5 -15 10 -18 6 -4 8 -10 5 -15 -2 -4 4 -19 15 -33
12 -15 16 -28 11 -32 -6 -3 -8 -12 -5 -20 4 -8 9 -13 13 -11 4 3 7 -6 7 -19 0
-13 -4 -21 -9 -18 -4 3 -6 7 -3 10 3 3 -4 19 -15 35 -12 16 -19 35 -16 42 3 7
1 19 -4 27 -6 10 -9 4 -9 -19 0 -18 7 -43 16 -57 12 -18 13 -29 5 -43 -8 -15
-7 -23 4 -32 9 -7 13 -15 10 -18 -3 -3 2 -16 10 -28 9 -15 11 -25 5 -29 -6 -4
-8 -11 -4 -16 4 -6 12 -5 22 3 15 10 15 10 4 -2 -7 -8 -17 -15 -23 -15 -5 0
-9 -4 -8 -10 1 -5 6 -9 12 -7 7 2 6 -2 -1 -11 -8 -9 -8 -17 -1 -24 6 -6 5 -10
-4 -10 -8 0 -14 7 -13 16 1 9 -2 17 -6 19 -5 1 -8 0 -8 -3 0 -3 0 -16 0 -29 0
-19 5 -24 18 -21 11 2 19 -3 19 -11 0 -10 -4 -11 -14 -3 -19 16 -30 -18 -14
-43 7 -12 8 -17 2 -13 -7 4 -11 -4 -11 -20 0 -15 4 -24 10 -20 6 4 7 11 4 17
-4 7 -2 8 4 4 7 -4 12 -2 12 5 0 7 3 9 7 6 3 -4 0 -15 -9 -24 -13 -16 -14 -24
-9 -50 1 -5 6 -1 11 7 7 11 8 5 6 -20 -2 -19 -5 -42 -7 -50 -2 -8 2 -14 9 -12
8 1 11 -2 7 -8 -5 -8 -11 -8 -19 -1 -13 11 -26 5 -26 -11 0 -5 5 -6 12 -2 7 4
8 3 4 -5 -9 -15 -29 -3 -23 13 3 7 1 19 -4 27 -6 9 -9 -1 -9 -31 0 -33 3 -41
10 -30 5 8 10 12 10 7 0 -11 56 18 430 232 189 108 360 212 380 231 19 19 41
53 47 74 9 29 12 301 10 1100 l-2 1061 -23 43 c-12 23 -23 42 -25 42 -1 0
-110 -197 -241 -438z m-621 -271 c3 -5 2 -12 -3 -15 -5 -3 -9 1 -9 9 0 17 3
19 12 6z m-2 -99 c-3 -12 -9 -19 -14 -16 -5 3 -3 14 3 24 15 24 19 21 11 -8z
m6 -161 c-2 -28 -5 -48 -9 -46 -4 2 -6 14 -4 27 1 13 3 33 3 46 1 12 3 22 6
22 4 0 5 -22 4 -49z m-2 -110 c0 -11 -5 -18 -9 -15 -4 3 -5 11 -1 19 7 21 12
19 10 -4z m3 -73 c0 -23 -3 -29 -9 -19 -8 12 -4 51 5 51 2 0 4 -15 4 -32z m69
-64 c4 3 7 -11 7 -29 0 -18 -4 -32 -8 -29 -4 2 -5 13 -3 24 2 11 0 22 -6 25
-5 4 -9 12 -8 18 0 9 2 8 6 -1 2 -6 8 -10 12 -8z m-72 -49 c0 -8 -4 -12 -9 -9
-5 3 -6 10 -3 15 9 13 12 11 12 -6z m88 -34 c3 -5 2 -12 -3 -15 -5 -3 -9 1 -9
9 0 17 3 19 12 6z m-85 -31 c-6 -12 -9 -28 -6 -35 3 -8 1 -17 -5 -20 -5 -4 -9
-3 -8 2 1 4 0 11 -1 16 -7 20 -4 33 10 48 20 21 24 16 10 -11z m-3 -122 c-3
-8 -6 -5 -6 6 -1 11 2 17 5 13 3 -3 4 -12 1 -19z m1 -70 c1 -26 -2 -37 -8 -29
-4 8 -6 21 -5 30 2 9 4 22 4 29 2 30 9 8 9 -30z m75 -55 c-14 -21 -11 -28 11
-24 5 1 4 -4 -2 -12 -7 -8 -8 -18 -4 -23 4 -4 -1 -3 -10 4 -15 12 -17 39 -4
61 4 5 0 11 -6 14 -7 3 -3 5 8 4 20 -1 21 -3 7 -24z m-78 -57 c0 -18 -3 -22
-13 -14 -9 8 -9 14 -1 24 15 18 14 18 14 -10z m4 -136 c0 -54 -3 -101 -7 -104
-4 -2 -6 39 -5 92 1 111 2 112 7 112 3 0 5 -45 5 -100z m76 11 c-3 -5 -1 -13
5 -16 8 -5 8 -11 1 -19 -6 -7 -9 -15 -6 -18 3 -2 -1 -5 -8 -5 -7 0 -14 10 -15
21 -1 15 1 17 7 7 6 -8 11 -9 15 -3 3 6 2 13 -4 17 -10 6 -5 25 6 25 3 0 3 -4
-1 -9z m-76 -237 c0 -42 -3 -74 -6 -71 -8 9 -7 147 1 147 3 0 5 -34 5 -76z
m811 20 c0 -8 -19 -13 -24 -6 -3 5 1 9 9 9 8 0 15 -2 15 -3z m77 -31 c-4 -3
-2 -12 4 -19 7 -8 7 -14 -1 -19 -8 -5 -7 -12 2 -23 12 -15 11 -16 -5 -3 -13
10 -14 17 -7 26 8 9 8 15 0 20 -10 6 -5 25 7 25 4 0 3 -3 0 -7z m-47 -19 c0
-8 -19 -13 -24 -6 -3 5 1 9 9 9 8 0 15 -2 15 -3z m11 -38 c-6 -7 -7 -17 -3
-21 4 -5 1 -5 -6 -1 -9 6 -10 11 -3 20 6 7 7 17 3 21 -4 5 -1 5 6 1 9 -6 10
-11 3 -20z m25 -27 c1 -5 2 -14 3 -20 0 -5 4 -8 9 -6 4 3 7 -8 7 -23 0 -15 -3
-26 -7 -23 -5 2 -8 13 -8 24 0 11 -3 18 -8 16 -4 -3 -7 8 -7 24 -1 25 8 32 11
8z m-879 -50 c-2 -12 0 -41 3 -65 4 -27 3 -41 -2 -36 -5 5 -10 24 -10 41 -1
17 -5 34 -9 37 -5 3 -3 14 4 24 15 25 18 25 14 -1z m5 -155 c-5 -9 -7 -26 -4
-38 3 -12 2 -19 -1 -16 -3 3 -8 17 -11 32 -4 23 1 32 22 37 2 1 -1 -6 -6 -15z
m67 -20 c4 3 8 -1 8 -9 0 -11 -4 -12 -14 -4 -7 6 -13 17 -12 23 0 7 2 6 6 -2
2 -6 8 -10 12 -8z m-72 -69 c0 -8 -4 -12 -9 -9 -5 3 -6 10 -3 15 9 13 12 11
12 -6z m1 -64 c-1 -29 -5 -38 -15 -34 -10 4 -11 9 -3 18 6 7 10 17 9 21 -2 15
1 34 6 34 3 0 4 -18 3 -39z m2 -83 c0 -23 -3 -29 -9 -19 -8 12 -4 51 5 51 2 0
4 -15 4 -32z m69 -24 c4 3 8 -1 8 -9 0 -11 -4 -12 -14 -4 -7 6 -13 17 -12 23
0 7 2 6 6 -2 2 -6 8 -10 12 -8z m-69 -36 c0 -4 -6 -8 -12 -9 -10 0 -10 -2 0
-6 6 -2 12 -14 11 -26 l0 -22 -9 21 c-5 12 -13 25 -19 29 -6 3 -9 10 -7 14 7
10 36 10 36 -1z m0 -174 c0 -25 -4 -43 -8 -40 -4 2 -7 17 -6 33 1 15 3 34 3
41 1 6 3 12 6 12 3 0 5 -21 5 -46z"/>
<path d="M5351 14776 c-8 -10 -9 -16 -1 -21 6 -4 9 -1 8 7 -2 7 3 12 10 10 8
-1 11 2 7 8 -8 13 -10 13 -24 -4z"/>
<path d="M5385 14740 c10 -11 20 -20 23 -20 3 0 -3 9 -13 20 -10 11 -20 20
-23 20 -3 0 3 -9 13 -20z"/>
<path d="M5480 14750 c0 -5 1 -12 3 -14 1 -2 -7 -14 -18 -27 l-20 -24 20 17
c18 15 32 58 19 58 -2 0 -4 -4 -4 -10z"/>
<path d="M5698 14621 c7 -4 14 -17 15 -28 0 -11 6 -20 12 -20 8 0 7 9 -2 29
-8 15 -20 28 -26 28 -8 0 -8 -3 1 -9z"/>
<path d="M5685 14601 c-3 -5 -2 -12 3 -15 5 -3 9 1 9 9 0 17 -3 19 -12 6z"/>
<path d="M8243 14525 c0 -8 4 -12 9 -9 5 3 6 10 3 15 -9 13 -12 11 -12 -6z"/>
<path d="M8240 14471 c0 -6 4 -13 10 -16 6 -3 7 1 4 9 -7 18 -14 21 -14 7z"/>
<path d="M8312 14413 c-5 -10 -7 -101 -5 -203 4 -220 4 -199 0 -230 -2 -14 -1
-29 2 -35 9 -18 9 -59 -1 -78 -5 -10 -7 -26 -3 -34 11 -29 32 16 28 61 -1 22
-3 49 -4 58 0 10 -4 20 -10 23 -5 4 -5 13 0 23 5 9 7 31 4 47 -8 48 -3 108 10
121 6 6 1 -35 -9 -67 -2 -9 4 -27 15 -40 11 -13 20 -19 21 -13 0 6 -7 17 -15
24 -11 9 -12 17 -4 31 5 10 7 19 4 19 -3 0 -2 8 3 17 7 11 4 26 -8 48 -14 25
-20 91 -10 103 1 1 3 10 5 20 1 9 7 28 12 42 9 20 7 29 -8 46 -11 11 -16 24
-12 27 3 4 3 7 0 7 -3 0 -10 -8 -15 -17z m17 -29 c4 3 7 -6 7 -20 0 -30 -19
-15 -22 18 -2 13 0 17 2 10 3 -6 9 -10 13 -8z m-5 -60 c3 -8 2 -12 -4 -9 -6 3
-10 10 -10 16 0 14 7 11 14 -7z m1 -133 c3 -5 2 -12 -3 -15 -5 -3 -9 1 -9 9 0
17 3 19 12 6z"/>
<path d="M8243 14305 c0 -8 4 -12 9 -9 5 3 6 10 3 15 -9 13 -12 11 -12 -6z"/>
<path d="M8335 14229 c-11 -17 1 -21 15 -4 8 9 8 15 2 15 -6 0 -14 -5 -17 -11z"/>
<path d="M8246 14143 c-6 -14 -5 -15 5 -6 7 7 10 15 7 18 -3 3 -9 -2 -12 -12z"/>
<path d="M5983 14058 c-11 -18 -45 -76 -75 -128 -101 -172 -352 -601 -390
-664 -20 -33 -44 -76 -54 -93 -20 -40 -32 -42 -28 -5 3 38 4 40 15 17 l9 -20
-3 20 c-2 11 -9 19 -16 17 -8 -2 -11 3 -8 12 4 9 2 18 -4 21 -5 4 -9 3 -8 -2
1 -4 1 -15 0 -23 -1 -13 -3 -13 -10 0 -6 8 -7 18 -4 22 2 5 -1 15 -7 24 -17
19 -43 -1 -35 -27 9 -27 -4 -24 -14 4 -6 15 -4 27 6 39 11 12 11 18 2 24 -7 4
-10 3 -5 -4 9 -15 -10 -24 -21 -9 -11 14 -11 27 0 44 4 6 3 15 -3 18 -6 4 -9
1 -8 -7 2 -7 -3 -12 -11 -10 -10 2 -12 -1 -5 -10 6 -7 10 -19 10 -25 -1 -15
-21 -18 -21 -4 0 5 -2 12 -5 14 -3 3 -5 -37 -5 -88 1 -52 3 -97 7 -100 3 -3 2
-21 -2 -40 -4 -19 -5 -33 -1 -32 10 3 11 -16 1 -48 l-10 -30 3 32 c2 18 0 30
-5 27 -22 -14 17 -119 58 -156 36 -32 1809 -1049 1847 -1059 92 -25 107 -58
-298 681 -207 377 -447 813 -532 970 -199 363 -344 624 -348 628 -1 2 -12 -12
-22 -30z m-646 -810 c2 -12 8 -27 13 -33 6 -7 6 -22 0 -41 l-10 -29 3 33 c2
18 -2 37 -10 43 -7 6 -11 15 -8 19 3 5 1 11 -4 15 -6 3 -8 -4 -6 -15 2 -11 1
-19 -3 -16 -4 2 -7 -18 -6 -45 0 -39 6 -55 27 -77 15 -16 24 -31 21 -35 -4 -4
-2 -13 4 -20 7 -8 8 -18 4 -22 -4 -5 -2 -5 5 -1 6 3 0 -14 -13 -39 -15 -26
-30 -42 -37 -38 -6 4 -8 0 -4 -10 9 -23 0 -21 -13 3 -7 14 -6 30 4 60 8 24 10
43 4 46 -5 3 -9 18 -8 32 1 15 1 32 0 37 -6 26 -4 153 2 149 4 -2 10 1 13 7 9
13 18 4 22 -23z m60 -11 c-6 -16 12 -49 22 -43 4 3 7 -7 6 -22 -1 -15 2 -33 8
-39 6 -9 6 -13 -1 -13 -5 0 -13 -10 -16 -22 -10 -39 -34 -64 -48 -50 -8 8 -8
15 2 27 10 12 15 13 21 4 4 -8 9 -4 14 11 11 35 13 70 4 64 -5 -3 -9 2 -9 11
0 10 5 13 12 9 7 -4 8 -3 4 5 -4 6 -12 9 -17 6 -5 -4 -9 2 -10 12 0 10 -6 2
-13 -17 -7 -19 -11 -42 -8 -50 4 -11 2 -12 -7 -4 -9 8 -9 21 3 54 8 24 13 47
10 52 -8 12 6 29 17 22 6 -3 8 -11 6 -17z m-64 -51 c-3 -13 1 -34 8 -47 7 -13
12 -28 11 -33 -2 -5 4 -4 13 4 8 7 15 18 14 24 -1 6 -1 20 0 31 2 16 4 14 15
-10 13 -32 10 -69 -5 -59 -5 3 -6 10 -3 16 4 7 2 8 -5 4 -6 -4 -9 -11 -6 -16
3 -5 1 -11 -4 -14 -14 -9 -60 51 -56 71 2 10 4 28 4 41 1 13 5 21 10 18 4 -3
6 -16 4 -30z"/>
<path d="M5314 13076 c0 -14 3 -23 7 -20 9 5 19 -21 19 -47 0 -11 -4 -18 -10
-14 -5 3 -6 13 -3 23 3 9 3 14 -1 11 -4 -4 -8 -15 -10 -25 -3 -11 -7 -28 -11
-39 -6 -16 -5 -17 4 -5 9 13 11 13 11 0 1 -8 8 -2 16 14 10 17 13 39 10 55 -4
14 -8 32 -9 39 -6 26 -23 32 -23 8z"/>
<path d="M8249 14018 c-5 -13 -5 -60 0 -63 4 -2 7 12 7 31 0 29 -3 42 -7 32z"/>
<path d="M8326 13784 c-3 -8 -9 -13 -13 -11 -5 3 -8 -45 -8 -106 -1 -83 3
-115 13 -122 7 -6 14 -25 14 -43 1 -26 4 -30 15 -21 10 9 10 15 2 25 -6 8 -8
14 -4 14 4 0 2 6 -4 13 -6 8 -7 17 -3 21 4 4 0 6 -8 4 -10 -2 -14 4 -12 17 1
11 3 48 5 82 2 34 6 65 10 69 4 4 2 13 -5 21 -8 10 -8 17 1 26 10 9 11 8 5 -8
-7 -18 -6 -18 9 -6 13 10 15 17 6 27 -14 18 -16 17 -23 -2z"/>
<path d="M8230 13775 c0 -2 6 -8 13 -14 10 -8 14 -7 14 2 0 8 -6 14 -14 14 -7
0 -13 -1 -13 -2z"/>
<path d="M8243 13485 c0 -8 4 -12 9 -9 5 3 6 10 3 15 -9 13 -12 11 -12 -6z"/>
<path d="M8243 13425 c0 -8 4 -12 9 -9 5 3 6 10 3 15 -9 13 -12 11 -12 -6z"/>
<path d="M8305 13204 c0 -68 3 -116 6 -107 4 10 5 21 3 25 -3 4 0 9 5 13 6 3
7 13 4 23 -3 9 -3 14 2 10 11 -10 14 -69 4 -62 -5 3 -9 -2 -9 -10 0 -8 6 -18
13 -22 6 -4 9 -4 5 1 -4 4 -3 14 4 22 13 16 20 75 8 68 -16 -10 -25 20 -26 83
-1 35 -5 67 -10 72 -5 5 -9 -43 -9 -116z"/>
<path d="M8244 13275 c0 -13 3 -22 7 -19 8 4 6 30 -2 38 -3 3 -5 -5 -5 -19z"/>
<path d="M5420 13265 c13 -14 26 -25 28 -25 3 0 -5 11 -18 25 -13 14 -26 25
-28 25 -3 0 5 -11 18 -25z"/>
<path d="M5475 13230 c-4 -6 -11 -7 -17 -4 -7 4 -8 2 -4 -5 6 -9 11 -9 22 0
14 11 18 19 10 19 -3 0 -8 -5 -11 -10z"/>
<path d="M8243 12985 c0 -8 4 -12 9 -9 5 3 6 10 3 15 -9 13 -12 11 -12 -6z"/>
<path d="M8330 12984 c0 -8 5 -12 10 -9 6 4 8 11 5 16 -9 14 -15 11 -15 -7z"/>
<path d="M8311 12930 c0 -14 -2 -42 -4 -62 -3 -21 -1 -38 5 -38 5 0 7 4 3 9
-3 5 -2 12 3 15 10 6 10 -50 0 -60 -5 -4 -8 -19 -8 -32 0 -24 1 -25 20 -7 11
10 17 21 15 26 -3 4 -1 10 5 14 6 4 4 14 -5 29 -8 12 -13 25 -10 28 3 3 -1 11
-10 18 -11 9 -12 17 -4 31 7 13 7 25 0 37 -9 15 -10 14 -10 -8z m16 -162 c-3
-8 -6 -5 -6 6 -1 11 2 17 5 13 3 -3 4 -12 1 -19z"/>
<path d="M8305 12810 c3 -5 8 -10 11 -10 2 0 4 5 4 10 0 6 -5 10 -11 10 -5 0
-7 -4 -4 -10z"/>
<path d="M8309 12724 c-4 -64 -2 -241 3 -238 4 2 11 -3 16 -12 9 -16 10 -16
20 2 14 26 13 36 -5 57 -9 9 -13 17 -8 17 4 0 3 6 -3 13 -5 6 -10 45 -10 85 0
40 -3 76 -6 79 -3 4 -6 2 -7 -3z m19 -176 c0 -7 3 -26 7 -43 6 -27 5 -28 -8
-11 -11 15 -14 44 -8 64 3 7 8 0 9 -10z"/>
<path d="M8244 12516 c1 -8 5 -18 8 -22 4 -3 5 1 4 10 -1 8 -5 18 -8 22 -4 3
-5 -1 -4 -10z"/>
<path d="M8243 12425 c0 -8 4 -12 9 -9 5 3 6 10 3 15 -9 13 -12 11 -12 -6z"/>
<path d="M15425 9661 l-470 -76 -13 -280 c-27 -564 -20 -724 38 -878 21 -57
72 -127 92 -127 31 0 279 236 388 370 188 230 340 535 415 835 42 166 52 235
33 234 -7 -1 -224 -36 -483 -78z"/>
</g>
</svg>
